<?xml version="1.0" standalone="no"?>
<!DOCTYPE svg PUBLIC "-//W3C//DTD SVG 20010904//EN"
 "http://www.w3.org/TR/2001/REC-SVG-20010904/DTD/svg10.dtd">
<svg version="1.0" xmlns="http://www.w3.org/2000/svg"
 width="268.000000pt" height="268.000000pt" viewBox="0 0 268.000000 268.000000"
 preserveAspectRatio="xMidYMid meet">
<metadata>
Created by potrace 1.14, written by Peter Selinger 2001-2017
</metadata>
<g transform="translate(0.000000,268.000000) scale(0.100000,-0.100000)"
fill="#000000" stroke="none">
<path d="M1180 2670 c-817 -100 -1356 -915 -1125 -1703 65 -225 180 -415 351
-583 186 -182 417 -304 684 -361 119 -25 381 -25 500 0 274 58 503 181 695
372 346 345 477 850 340 1318 -85 294 -277 558 -530 732 -143 98 -362 187
-528 215 -90 15 -301 20 -387 10z m356 -580 c234 -60 427 -230 521 -460 42
-101 56 -177 56 -290 0 -207 -73 -388 -217 -538 -103 -108 -255 -192 -401
-223 -77 -16 -233 -16 -310 0 -293 62 -531 294 -601 587 -22 91 -22 257 0 348
76 317 335 552 658 596 82 11 204 2 294 -20z"/>
<path d="M1257 1680 c-99 -25 -191 -103 -235 -198 -22 -48 -27 -71 -27 -142 0
-104 29 -174 100 -245 71 -71 141 -100 245 -100 104 0 174 29 245 100 71 71
100 141 100 245 0 71 -5 94 -27 142 -33 72 -103 142 -173 174 -61 28 -167 39
-228 24z m134 -289 c16 -16 29 -39 29 -51 0 -28 -52 -80 -80 -80 -28 0 -80 52
-80 80 0 28 52 80 80 80 12 0 35 -13 51 -29z"/>
</g>
</svg>
